# xmcd
#
# Track frame offsets: 
#        150
#        26536
#        50620
#        68074
#        82046
#        95146
#        111898
#        134182
#        158499
#        175989
#
# Disc length: 2590 seconds
#
# Revision: 0
# Processed by: cddbd v1.5.2PL0 Copyright (c) Steve Scherf et al.
# Submitted via: ExactAudioCopyFreeDBPlugin 1.0
#
DISCID=8a0a1c0a
DTITLE=Eliza Gilkyson - Misfits
DYEAR=1999
DGENRE=Americana
TTITLE0=Hollywood Years
TTITLE1=Mama's Little Baby
TTITLE2=Sleep Tonight
TTITLE3=Father Jesus
TTITLE4=Beautiful Dreamer
TTITLE5=Love's Shadow
TTITLE6=Bad Boy | Good Man
TTITLE7=Last Big Thrill
TTITLE8=Nuestra Senora del Rio
TTITLE9=Chimes of Freedom
EXTD=
EXTT0=
EXTT1=
EXTT2=
EXTT3=
EXTT4=
EXTT5=
EXTT6=
EXTT7=
EXTT8=
EXTT9=
PLAYORDER=
